<?xml version="1.0" encoding="utf-8"?>
<!-- Generator: Adobe Illustrator 21.1.0, SVG Export Plug-In . SVG Version: 6.00 Build 0)  -->
<svg version="1.1" id="Layer_1" xmlns="http://www.w3.org/2000/svg" xmlns:xlink="http://www.w3.org/1999/xlink" x="0px" y="0px"
	 viewBox="0 0 1440 432" style="enable-background:new 0 0 1440 432;" xml:space="preserve">
<style type="text/css">
	.st0{fill:#009978;}
	.st1{fill:#8BC7B8;}
	.st2{fill:#231F20;}
	.st3{fill:#C42033;}
	.st4{fill:#242021;}
	.st5{fill:#58585A;}
	.st6{fill:#58595B;}
	.st7{fill:#5A595B;}
	.st8{fill:#5A5B5D;}
	.st9{fill:#7DC3B1;}
	.st10{fill:#90C7BB;}
	.st11{fill:#7DC3B0;}
	.st12{fill:#626668;}
	.st13{fill:#676768;}
	.st14{fill:#767C7C;}
	.st15{fill:#1B1819;}
	.st16{fill:#626667;}
	.st17{fill:#89A09B;}
	.st18{fill:#8AA5A0;}
	.st19{fill:#039370;}
	.st20{fill:#4E4E4E;}
	.st21{fill:#D5E5E4;}
	.st22{fill:#91C7BB;}
	.st23{fill:#504D52;}
	.st24{fill:#F5E1E3;}
	.st25{fill:#F3D6D9;}
	.st26{fill:#F4DDDF;}
	.st27{fill:#C52436;}
	.st28{fill:#EEC0C4;}
	.st29{fill:#F2D1D5;}
	.st30{fill:#EDC0C5;}
	.st31{fill:#FDFDFA;}
	.st32{fill:#C3172B;}
	.st33{fill:#FCF7F6;}
	.st34{fill:#C31B30;}
	.st35{fill:#FBEFEF;}
	.st36{fill:#FEF8F3;}
	.st37{fill:#EBB6BB;}
	.st38{fill:#CD4051;}
	.st39{fill:#E39099;}
	.st40{fill:#BD0E1E;}
	.st41{fill:#C9384A;}
	.st42{fill:#FBF3F6;}
	.st43{fill:#C0162C;}
	.st44{fill:#F7E0E2;}
	.st45{fill:#BF1324;}
	.st46{fill:#C3162A;}
	.st47{fill:#EDC4C4;}
	.st48{fill:#BB1C2D;}
	.st49{fill:#EDC1C4;}
	.st50{fill:#C41728;}
	.st51{fill:#C0172F;}
	.st52{fill:#C93849;}
	.st53{fill:#C62132;}
	.st54{fill:#C31227;}
	.st55{fill:#D46271;}
</style>
<g>
	<path class="st0" d="M200.3,377.9c59-31.7,89.1-126.9,12-185.6c-7.8-6-16.2-11.2-25.2-15.3c-4-1.8-4.8-3.6-2.2-7.2
		c7.9-11.2,11.5-24.1,14.8-37.1c0.8,0.6,1.1,1.4,1.1,2.4c-1.3-0.2-0.1,2.2-0.2,1.6c0.2-3.6,1.1-6.6-0.5-9.4
		c-1.7-23.6-2.3-25.5-17.2-50.2c1.3-2.2,3.5-1.2,5.2-1.2c44.3-0.1,88.6,0.1,133-0.2c7.5-0.1,9.1,2.1,9.1,9.4
		c-0.2,98.2-0.2,196.3-0.1,294.5c-2.3,1.9-5,1.1-7.6,1.1c-38.1,0.1-76.2,0.1-114.3-0.1C205.6,380.4,201.3,383.4,200.3,377.9z"/>
	<path class="st1" d="M83.5,113.4c12.8-17.7,31-21.5,51.3-20c-0.5,3.4,3,1.7,4.1,3.2c18.6,14.7,22.3,33,11.6,54.1
		c-5.6,11-14.3,19.4-23.4,27.4c2.8,3.6,7,3.2,9.8,5.4c2.5,1.4,5.8,0.6,7.9,3l-0.2-0.1c27.4,9.1,47.3,26.3,56.4,54.1
		c11.6,35.5-6,75.4-41.4,95.9c-9.4,5.4-19.1,10.1-30,11.7c-4.9,0.1-9.7,0.7-14.4,1.8c-8.2-0.5-16.1-2.4-23.8-5.6
		c-4.6-1.3-5.8-4.8-5.7-9c0.2-23.6-0.9-47.2,0.3-70.7c0.7-1.6,2.2-2.2,3.5-3.2c14.6,0.7,27.3,4.7,33.6,19.6
		c-0.2,2.1-0.1,4.2-0.2,6.3c0,1.3-0.2,2.6-0.6,3.8c-0.6,1.7-1.4,3.3-2.2,4.9c-2.4,5.3-7,8.5-11.6,11.7c-6.3,4.4-8.7,9.6-4.3,16.6
		c1.7,2.6,3.8,4.2,7,2.3c26.6-8.3,41.3-32.8,35.9-59.6c0.8-3.8-0.7-7.1-2-10.4c-5.1-24.9-22.1-37.4-45.1-43.7c-3.5-1-7-1.8-9.9-4.2
		c-0.8-0.7-1.5-1.5-2.2-2.3c-3.3-3.5-2.6-7.9-2.6-12.1c-0.1-25,0.1-50.1-0.1-75.1C84.5,117.3,85.1,115,83.5,113.4z"/>
	<path class="st2" d="M1114.6,152.5c-11.2,21.5-21,40.4-30.8,59.2c-1.9,3.7-3,8.3-8.7,8c-5.1-0.2-6-4.5-7.7-7.9
		c-10.2-19.4-20.4-38.9-32-60.9c-2.5,17.2-4.8,31.8-6.8,46.4c-2.7,20.4-2.6,20.5-23.3,20.4c-11.7,0-12-0.3-10.2-11.5
		c7-42.1,14.2-84.1,21.3-126.2c0.6-3.4,0.2-7.5,5.3-8.1c4.6-0.6,6.3,2.6,8,5.8c14.9,27.8,29.8,55.5,44.6,83.1
		c3.8-0.4,3.9-3.6,5.1-5.7c13.8-25.4,27.4-50.8,41.1-76.3c2-3.8,3.7-8.1,9.3-6.9c5.2,1.2,4.4,5.9,5,9.6c7.1,41.7,14,83.5,21.3,125.2
		c1.4,8,0,11.3-9,11.1c-21.3-0.4-21.2,0-24.8-21.2C1119.9,182.9,1119.4,168.7,1114.6,152.5z"/>
	<path class="st2" d="M1341.7,148.6c0-21.9,0.4-43.4-0.2-64.9c-0.2-8,2.4-10,10.1-9.9c22.2,0.3,22.2,0,22.2,22.4
		c0,37.8,0,75.6-0.1,113.3c0,3.3,1.8,7.7-2.5,9.7c-4.8,2.1-7.9-1.3-11-4.4c-22.9-23.1-45.8-46.2-68.8-69.1c-2.2-2.2-3.9-5.3-8.5-6.4
		c0,22.6-0.5,44.7,0.2,66.8c0.3,9.9-3,12.2-12.3,11.9c-19.9-0.7-19.9-0.2-20-19.7c-0.1-38.8-0.2-77.5-0.1-116.3
		c0-3.3-1.8-7.8,2.7-9.6c4.6-1.9,7.8,1.1,11.1,4.2c22.9,22.2,45.9,44.3,68.9,66.3C1335.6,144.9,1337.2,148.1,1341.7,148.6z"/>
	<path class="st2" d="M712.6,150.7c0-23.8,0.3-45.1-0.2-66.3c-0.2-8.1,2.1-10.8,10.5-10.7c22,0.4,22,0,22,21.6
		c0,37.1,0.1,74.2-0.1,111.3c0,4.2,2.7,10-2.7,12.4c-6.2,2.8-9.4-3.1-12.9-6.7c-22.3-22.3-44.5-44.7-66.8-67c-2.2-2.2-4.6-4.3-8.5-8
		c0,23.6,0,45.1,0,66.6c0,13.6,0,13.6-14,13.6c-18,0-18,0-18-18.5c0-39.1-0.2-78.2-0.1-117.3c0-3.3-1.8-7.8,2.7-9.6
		c4.6-1.9,7.8,1,11.1,4.2C660.5,100.6,685.6,124.7,712.6,150.7z"/>
	<path class="st3" d="M1375.7,277.1c-0.1,31.9-0.4,63.7-0.2,95.6c0.1,6.6-1.9,8.1-8.2,8c-33.2-0.3-66.4-0.2-99.6,0
		c-5.8,0-8.1-1.4-8-7.6c0.3-33.2,0.3-66.4,0-99.6c-0.1-6.9,2.4-8.6,9-8.5c32.9,0.3,65.7,0.3,98.6,0c6.4-0.1,9,1.8,8.3,8.1
		C1376.7,274.4,1376.7,275.8,1375.7,277.1z"/>
	<path class="st2" d="M501.6,145.7c0-20.7,0.2-41.4-0.1-62.1c-0.1-7,1.6-9.9,9.3-9.8c25,0.4,50,0.4,74.9,0c7.3-0.1,8.8,2.8,8.8,9.3
		c0.1,20.9,0.3,20.9-20.6,20.9c-11.2,0-22.4,0.2-33.5-0.1c-5.2-0.2-6.6,1.6-6.8,6.7c-0.7,18.9-0.9,18.9,18.1,18.9
		c8.5,0,17.1,0.2,25.6,0c5-0.1,7.4,1.8,7.1,6.9c0,0.7,0,1.3,0,2c-0.4,25.5,3.4,21.3-21,21.7c-3.6,0.1-7.2,0-10.8,0
		c-19.8,0-22.3,3.3-19,23c0.9,5.1,4,4.3,7.2,4.3c14.8,0,29.6,0.3,44.4-0.1c7.5-0.2,9.5,2.6,9.5,9.8c-0.1,20.8,0.2,20.8-20.9,20.8
		c-21,0-42.1-0.2-63.1,0.1c-6.9,0.1-9.2-2.2-9.1-9C501.8,187.7,501.6,166.7,501.6,145.7z"/>
	<path class="st2" d="M744.3,336c12.3-23,23.7-44.3,35.3-65.5c2.2-3.9,2.8-10.7,9.4-9.6c6.4,1,4.3,7.3,5,11.4
		c5.7,32.3,11.1,64.7,16.6,97c2.1,12.2,2,12.2-9.9,12.2c-15.3,0-15.2,0-17.2-14.7c-1.7-12.7-3.7-25.3-6-40.5
		c-9.1,17.4-17,32.6-25.1,47.8c-1.9,3.6-2.4,8.7-7.9,9c-5.7,0.2-6.3-5-8.2-8.5c-8.1-15.2-16.1-30.6-25.4-48.4
		c-2.4,16.2-4.7,29.6-6.1,43.1c-0.9,8.7-3.2,14.6-13.6,12.3c-1.9-0.4-4-0.3-5.9,0c-7,0.9-9.3-1.6-8.1-8.9
		c6.2-35.2,12-70.5,17.9-105.8c0.5-3,0.9-6,4.8-6.3c4.3-0.3,5.4,3,7,5.8C719.1,289.1,731.2,311.6,744.3,336z"/>
	<path class="st2" d="M1069.6,325.5c0-19.7,0.3-37.1-0.1-54.4c-0.2-6.9,2.1-9.2,9-9.1c21.4,0.4,18.1-1.6,18.2,17.5
		c0.1,31.5,0.1,63.1,0,94.6c0,3.1,1.3,7.1-2.6,8.8c-4,1.7-6.7-1.3-9.3-3.9c-18.5-18.6-37-37.3-55.6-55.8c-2.2-2.2-3.7-5.4-8.3-6.1
		c0,18.6-0.4,36.8,0.2,55c0.3,8.1-2.5,10.1-10.1,9.8c-19.3-0.8-16.5,2.6-16.6-16.8c-0.2-31.9-0.2-63.7-0.1-95.6c0-3-1.6-7,2.8-8.4
		c3.7-1.2,6.1,1.1,8.5,3.5c18.4,17.8,36.9,35.5,55.4,53.3C1063.3,319.9,1065.7,322,1069.6,325.5z"/>
	<path class="st2" d="M1222,347.1c0,3.3,0,6.6,0,9.9c0,16.4,0.1,16.5-16.1,21.6c-23.1,7.2-45.4,7-65.4-8.6
		c-26.8-20.8-30.9-60.5-9.1-87.1c21.1-25.7,60.5-29.5,85.9-8.7c4.5,3.7,4.7,6.5,0.6,10.2c-2.2,2-4.3,4.1-6.1,6.4
		c-4,5.1-7.4,6.5-13.7,2.2c-12.8-8.9-29.5-6.6-40.7,4c-11.1,10.6-13.9,27.3-6.8,40.7c7.3,13.6,22.4,20.7,37.4,17.5
		c3.8-0.8,7.8-1.1,7.6-6.9c-0.2-6.1-4.4-4.7-7.6-4.6c-4.6,0.1-6.2-1.9-6.6-6.4c-1.5-16.5-1.1-17.1,15.5-17.1c25.2,0,25.2,0,25.2,25
		C1222,345.8,1222,346.5,1222,347.1z"/>
	<path class="st2" d="M596.4,381.4c-21.1-5-35.7-21.5-36.5-43.1c-0.8-23-0.2-46-0.4-68.9c0-4.8,1.6-6.9,6.8-7.3
		c20.7-1.6,20.7-1.8,20.7,18.8c0,16.7-0.1,33.5,0,50.2c0.1,15.2,8,24.7,20.7,24.9c13.1,0.3,21.6-9.3,21.7-24.9
		c0.1-20,0.3-40.1-0.1-60.1c-0.1-6.9,2.3-9.2,9.1-9c21.8,0.5,18.5-2,18.7,18.1c0.1,18.4,0.4,36.8-0.1,55.2
		c-0.8,31-28.2,53.2-57.1,46.6c2.2-1.8,4.7-1.2,5.3-1.1C603.4,381,599.9,379.8,596.4,381.4z"/>
	<path class="st2" d="M834.9,130.7c0,16.4,0.7,32.8-0.2,49.2c-0.9,16.7-9.3,29.3-25,35.9c-15.2,6.4-30.2,5.7-43.6-4.9
		c-8.4-6.6-8.4-8.9-1.1-16.1c2.3-2.3,4.7-4.6,7-6.9c2.8-3,5.2-3.6,9.3-1.1c11.5,6.8,20.5,1.6,20.8-12.2c0.4-20.3,0.1-40.7,0.2-61
		c0-9.2,0-18.4,0-27.6c0-1.6-0.4-3.4,0.1-4.9c4.2-14.4,15.8-4.4,23.6-6.8c5.2-1.6,9.5,0,9.3,7.3c-0.3,16.4-0.1,32.8-0.1,49.2
		C835.1,130.7,835,130.7,834.9,130.7z"/>
	<path class="st4" d="M1215.6,144.9c0,21.4-0.2,42.7,0.1,64.1c0.1,6.2-1.7,8.9-8.4,8.8c-28.9-0.8-24.1,4.4-24.3-23.3
		c-0.3-36.5,0.2-73-0.2-109.4c-0.1-8.4,2.1-11.5,11-11.3c21.8,0.5,21.8,0.1,21.8,21.9C1215.6,112.1,1215.6,128.5,1215.6,144.9z"/>
	<path class="st2" d="M475.7,321.9c0-16.7,0.3-33.5-0.1-50.2c-0.2-7.1,1.6-10,9.3-9.8c20.7,0.6,17.3-1.7,17.4,17.2
		c0.2,22.6,0.3,45.3-0.1,67.9c-0.1,7.1,1.3,10.1,9,9.4c8.5-0.7,17.1,0.2,25.6-0.3c7.3-0.5,9.9,2,9.7,9.4c-0.4,19.8,0.6,15.8-15.5,16
		c-14.8,0.2-29.6-0.7-44.3,0.3c-9.7,0.6-11.5-3.2-11.2-11.7C476.1,354.1,475.7,338,475.7,321.9z"/>
	<path class="st5" d="M129,346.3c25.1-7.1,46.6-19.5,60.5-42.3c25.4-41.8,10.4-90.5-34.1-111.4c-3.8-1.8-8.1-2.7-10.7-6.3
		c25.6,0.5,70.5,24.6,76.6,69.7c6.1,45.3-28.1,88.8-73.8,92.4C141.2,348.3,134.6,351.7,129,346.3z"/>
	<path class="st4" d="M965,322.1c0,17.1-0.2,34.1,0.1,51.2c0.1,6.4-1.9,8.7-8.4,8.5c-22.5-0.6-18.7,2.8-18.8-18.6
		c-0.2-30.5,0.2-61-0.2-91.5c-0.1-7.3,2.1-10.5,9.5-9.6c2.3,0.3,4.6,0.3,6.9,0c8.5-1.2,11.6,1.9,11.2,10.8
		C964.5,289.3,965,305.7,965,322.1z"/>
	<path class="st5" d="M136.8,184.4c-5.4,0-9.9-2.7-16.1-4.7c17.6-14,33.6-28.8,33.2-52.7c-0.2-12.2-7.2-22.1-17-29.6
		c0.1-4.1,2.7-2.2,4.7-2.1c14.4,4.4,25.1,12.3,29,27.9c4.2,16.9-3.4,29.6-13.6,41.9c-5.5,6.6-14,9.7-18.3,17.5
		C139.1,184.2,138.9,185.2,136.8,184.4z"/>
	<path class="st6" d="M91.4,207.9c9.4,2.6,19,4.9,27.7,9.5c16.3,8.5,25.9,21.5,27.8,40c0.6,1.8,1.6,3.7-1.8,3.6
		c-9.1-19.3-26.4-27.2-45.5-32.1c-16.6-4.3-16.6-4.1-16.2-20.9C86.1,205.9,88.8,205.9,91.4,207.9z"/>
	<path class="st7" d="M136.3,58.4c-19.2,0.7-36.9,5.4-52,18.1C73.1,85.9,66.4,98.1,62,111.8c-2.1-1.6-0.3-4.5-2-6.2
		C61,80,85.2,55.2,113.1,50.1c18.1-3.3,33.9,1.5,49.2,10.4c-0.1,3.6-2.1,2.6-4.1,1.7c-3.5,0.7-6.5-1-9.6-2.2
		C144.7,57.9,140.2,60.3,136.3,58.4z"/>
	<path class="st8" d="M103.4,326.7c-6.3-9.2-5.8-13.8,2.2-19.7c4.9-3.6,9.6-7.5,13.4-12.3c1.9,0.2,3,1.4,3.9,3
		c0.1,0.4,0.2,0.8,0.3,1.2c-1.6,10.8-8.9,18.1-16,25.5C106.3,325.8,105.5,327.3,103.4,326.7z"/>
	<path class="st9" d="M91.4,207.9c-2.7,0-5.3,0-8,0.1c0-31.5,0-63,0.1-94.6c1.6,0.8,2,2.3,2,4c2,12,0.6,24.2,0.9,36.3
		c0.3,14.5,0.1,28.9,0,43.4c0,4.1-0.2,8,5,9.1C91.4,206.7,91.4,207.3,91.4,207.9z"/>
	<path class="st10" d="M87.5,263.3c0.1,23.8,0.1,47.6,0.2,71.4c0,3.5,0.6,7.1,3.7,9.5c-2.2,0-4.4,0.1-6-1.8
		c-2-25.4-0.4-50.8-0.8-76.2C84.6,264.4,85.3,263.1,87.5,263.3z"/>
	<path class="st11" d="M87.5,263.3c-3.2,2.9-1.9,6.8-1.9,10.2c-0.1,23-0.1,45.9-0.1,68.9c-3-1.5-2.3-4.4-2.3-6.9
		c0-22.8,0.1-45.6-0.1-68.4c0-4.9,0.8-7.8,6.4-5.9C88.8,261.9,88.2,262.6,87.5,263.3z"/>
	<path class="st12" d="M129,346.3c5.8,3.8,12.3,0.7,18.4,2.1c-10.6,3.4-21.4,1.7-32.2,1.4C119.4,347.2,124.2,346.4,129,346.3z"/>
	<path class="st8" d="M120.7,290.7c0.2-1.2,0.4-2.3,0.5-3.5c0.8-1.2,1.2-3.1,3.4-2c0.4,4.7,1.2,9.4-1.4,13.8c0,0-0.6-0.7-0.6-0.7
		C121.1,295.9,121.1,293.3,120.7,290.7z"/>
	<path class="st13" d="M158.2,62.2c1.4-0.6,2.7-1.2,4.1-1.7c2.5,0.8,4.5,2.3,5.6,5.1C164.2,65.7,161.2,63.9,158.2,62.2z"/>
	<path class="st14" d="M136.8,184.4c0.6-0.6,1.3-1.2,1.9-1.8c3.1-0.4,5.4,0.5,6.1,3.8C142.1,185.8,138.9,187.3,136.8,184.4z"/>
	<path class="st15" d="M596.4,381.4c3.7-3.2,7.8-1,11.8-0.3c-2.8,0.2-5.5,0.5-8.3,0.7C598.7,381.7,597.5,381.5,596.4,381.4z"/>
	<path class="st13" d="M136.3,58.4c4.2,0.1,8.6-1.7,12.3,1.6C144.4,60,140.2,60.2,136.3,58.4z"/>
	<path class="st16" d="M141.6,95.3c-1.6,0.7-3.1,1.4-4.7,2.1c-1.5-0.9-3.1-1.8-4.6-2.7c0.8-0.4,1.7-0.9,2.5-1.3
		C137.1,94,139.3,94.6,141.6,95.3z"/>
	<path class="st17" d="M145.2,261c0.6-1.2,1.2-2.4,1.8-3.6c2.4,3.1,2.5,6.3,0.3,9.5C146.5,264.9,145.9,262.9,145.2,261z"/>
	<path class="st18" d="M124.6,285.2c-1.1,0.7-2.2,1.3-3.4,2c-0.2-2.4-0.5-4.7,1.9-6.3C124.6,282,125.1,283.4,124.6,285.2z"/>
	<path class="st19" d="M200.1,127.2c2.4,1.8,1.9,4.5,1.7,6.9c-0.1,1.2-0.9,1.3-1.6,0.3c-0.3-0.5-0.3-1.2-0.5-1.8
		C199.8,130.8,199.9,129,200.1,127.2z"/>
	<path class="st20" d="M60.1,105.5c2.2,1.6,1.5,4.1,2,6.2c-0.1,0.9-0.3,1.8-0.4,2.7c-0.6-0.5-1.7-0.9-1.7-1.4
		C59.8,110.6,60,108.1,60.1,105.5z"/>
	<path class="st21" d="M103.4,326.7c1.3-0.8,2.5-1.5,3.8-2.3c0.9,1.7,2.5,1.8,4.1,2.1C108.7,328.7,106.1,329.6,103.4,326.7z"/>
	<path class="st22" d="M91.4,206.1c-6.8,0.5-5.9-4.4-5.9-8.6c0-26.7,0-53.5,0-80.2c1.5,1,4.5,1.2,4.1,3.5
		c-4.9,25.2-0.7,50.6-2.2,75.8C87.2,200.7,88.6,203.6,91.4,206.1z"/>
	<path class="st23" d="M120.7,290.7c3,1.9,2.2,4.8,1.9,7.6c-2-0.4-2.8-1.9-3.6-3.5C119.1,293.2,119,291.6,120.7,290.7z"/>
	<g>
		<path class="st2" d="M457.8,149.4c-2.5-1.6-5-3-8.5-5c3.3-2.4,5.7-4.1,8-5.9c20.6-16.6,19.2-42.3-2.9-56.9
			c-7-4.6-14.8-7.3-23.1-7.5c-16.1-0.4-32.2-0.1-48.2-0.3c-5-0.1-7.1,1.9-7.1,6.9c0.1,43.3,0,86.6,0,130c0,4.2,1.2,7,6.1,6.9
			c18.4-0.2,36.8,0.1,55.1-0.5c7.5-0.3,14.7-3.3,21.1-7.6C481.6,194,481.4,164.4,457.8,149.4z M417.7,103.3
			c13.8,1.1,20.7,4.8,20.7,14.2c0.1,9.8-7.1,14.9-21.2,14.8c-11.1-0.1-8.7,0.9-8.9-15.1C409.1,110.9,404.7,102.2,417.7,103.3z
			 M417.7,188.5c-14.2,1-7.5-9.1-9.4-13.8c1-7.6-4-17.2,10.2-16c14.4,1.2,22.7,5.4,23.1,14.5C441.9,183.3,434,187.4,417.7,188.5z"/>
	</g>
	<path class="st24" d="M1310.3,352.7c-2.6,1-5.1,3-8.2,1.5c-1.8-0.9-3.9-2-3.4-4.2c0.8-3.2,2.7-1.2,4.4-0.4c1.8,0.8,3.5-0.1,4-1.7
		c0.9-2.9-1.9-1.3-3-1.9c-4.8-2.8-6.4-7.1-5.8-12.4c0.5-4.6,3-7.4,7.6-7.3c4.3,0.1,6.6,3,6.7,7c0.1,6.2-0.3,12.4-0.5,18.6
		C1311.7,352.7,1311.1,352.9,1310.3,352.7z"/>
	<path class="st25" d="M1331.5,337.2c3.1,3,3.4,6.8,3,10.9c-0.5,4.2-2.8,6.6-7,6.7c-4.2,0.1-6.9-2.2-7.3-6.3
		c-0.4-4.8-0.3-9.7-0.1-14.6c0.1-4.1,2.3-6.9,6.4-7.4c4-0.5,7,1.2,7.4,5.7C1332.2,333.3,1328.8,333.8,1331.5,337.2z"/>
	<path class="st26" d="M1353.3,352.1c-3.4,4.9-9.1,3.5-12,1.5c-3.8-2.7,1.3-5.8,2.6-8.8c0.6-1.5,1.5-2.9,2.3-4.3
		c4.1-6.3,5.2-10.8-6.8-7.5c2.3-5.7,5.2-7.6,9.4-6.4c4.5,1.3,6.3,5,4.6,9.3c-1.6,4.2-4.2,8.1-6.3,12.2
		C1347,353,1352,349.7,1353.3,352.1z"/>
	<path class="st27" d="M1343.9,314.5c-2.1-0.7-4.1-1.3-6.2-2c-1.5-0.9-3.6-0.3-4.5-2.3c-0.3-4.7-1.9-9.5,1.1-13.9
		c0.9-1.6,2.5-2.5,3.9-3.6c2.9,2.5,3.9-1.1,5.7-1.9C1347.1,298.8,1347.1,306.7,1343.9,314.5z"/>
	<path class="st28" d="M1343.9,314.5c0-7.9,0-15.7,0-23.6c3.2-0.3,6.5-1.1,9.9,0.7c0.6,3.3-13.1,5.8-0.9,9.9c0.1,0,0,2.1-0.4,2.3
		c-11.8,4.7,0.3,6.3,2,9.6C1350.7,315.7,1347.3,314.7,1343.9,314.5z"/>
	<path class="st29" d="M1283.1,336c-3.9-5.9,1.9-8.4,4.9-8.9c4.5-0.8,2.8,4.2,2.7,6.6c-0.1,6.8,1.3,13.9-1.6,22.1
		c-5.5-6.9-0.2-14.3-4.5-19.6C1284,336.9,1283.5,336.8,1283.1,336z"/>
	<path class="st30" d="M1306.6,301.3c2-3.1-0.5-7.1,2.5-10.5c4.8,2.4,5,7.7,7.4,11.6c-0.3,1.4-1.1,2.3-2.5,2.6
		c-4.5,1.7,0.1,7.6-4.4,9.4c-3.3-1-1.4-4.5-3-6.2C1304.2,305.9,1304.2,303.6,1306.6,301.3z"/>
	<path class="st31" d="M1333.9,310.1c1.4,0.5,3.5,0,3.8,2.4c-7.1,4.4-10.6,1.5-10.7-5.9c-0.1-4.9-2.1-10.6,2.8-14.7
		c0.8,0.6,1.4,1.3,1.8,2.2c1.1,4.6-0.2,9.2,0.7,13.8C1332.7,308.8,1333.3,309.5,1333.9,310.1z"/>
	<path class="st32" d="M1306.6,301.3c0,2.3,0,4.6,0,6.9c-0.4,2.9-1.3,5.4-4.5,6.3c-3.7-7.8-3.7-15.6,0-23.5
		C1309.1,292,1305.1,297.9,1306.6,301.3z"/>
	<path class="st33" d="M1314,305c0.8-0.9,1.7-1.7,2.5-2.6c3.7-3-1.5-8.7,3.4-11.3c3.3,7.8,3.3,15.5,0,23.3
		C1315.6,312.8,1315.6,308.4,1314,305z"/>
	<path class="st34" d="M1310.3,352.7c0.6-0.2,1.2-0.5,1.9-0.7c1.8-0.9,2.1-2.5,2.3-4.2c2.2-5.7-0.8-11.8,1.7-17.4
		c3.5,7,2.8,14.1,0.2,21.1C1315.4,353.9,1313.7,358.5,1310.3,352.7z"/>
	<path class="st35" d="M1286.6,294.4c-5.3,2.9,3,6.3-1.4,9.6c-1.7,0.4-2.2-3-4.3-3.3c-1.8-2.5-1.6-5.1-0.1-7.7
		c2.3-1.8,4.8-2.9,7.8-2C1289.5,293.1,1288.2,293.8,1286.6,294.4z"/>
	<path class="st36" d="M1280.2,312.5c6.4-0.7,7.6-5.1,10.8-5.6c1.5-0.2,1.5,3.3,0.5,5C1289.4,315.4,1286.4,315,1280.2,312.5z"/>
	<path class="st37" d="M1302.1,291c0,7.8,0,15.6,0,23.5c-0.6,0.1-1.3,0-1.8-0.3c-3.8-5.9-0.5-12.7-2.3-18.8
		c-0.4-1.6-0.8-3.2,0.9-4.3C1299.9,291,1301,291,1302.1,291z"/>
	<path class="st38" d="M1298.8,291c-0.1,1.3-0.2,2.6-0.2,3.9c1.5,6.5,1.2,13,0.1,19.5C1295.2,306.6,1295,298.8,1298.8,291z"/>
	<path class="st39" d="M1320,314.3c0-7.8,0-15.5,0-23.3c0.6-0.2,1.2-0.2,1.9-0.2c2,7.9,2,15.8,0,23.6
		C1321.3,314.6,1320.6,314.5,1320,314.3z"/>
	<path class="st40" d="M1321.9,314.5c0-7.9,0-15.8,0-23.6C1325.5,298.8,1325.4,306.7,1321.9,314.5z"/>
	<path class="st41" d="M1331.5,337.2c-1.9-1.9-8,1.3-6.5-4.2c1.5-5.4,6,1.4,8.9-0.9C1333.1,333.8,1332.3,335.5,1331.5,337.2z"/>
	<path class="st42" d="M1298.7,314.4c0-6.5-0.1-13-0.1-19.5c3.8,6.1,1.1,12.8,1.7,19.2l-0.8,0.3L1298.7,314.4z"/>
	<path class="st43" d="M1283.1,336c0.5-0.2,1-0.2,1.5,0.2c0,4.6,0,9.1,0,13.7C1284,345.2,1279.5,340.9,1283.1,336z"/>
	<path class="st44" d="M1330.2,295.2c-0.1-1.1-0.2-2.1-0.4-3.2c3.1-2.8,5.7-0.9,8.3,0.8c0.1,1.8-0.6,3.2-2.3,4.1
		c-1.4,1-2.7,0.4-4-0.3C1331.3,296.1,1330.8,295.6,1330.2,295.2z"/>
	<path class="st45" d="M1316.2,330.3c-0.8,5.8,1.9,11.9-1.7,17.4C1315,341.9,1312.5,335.8,1316.2,330.3z"/>
	<path class="st46" d="M1354,356.9c-5.8,1.2-8.9,1.4-13,0.1C1345.1,355.6,1348.3,355.9,1354,356.9z"/>
	<path class="st47" d="M1286.6,294.4c0.6-1.1,1.3-2.3,1.9-3.4c2.4,0.3,4.8,1.6,3.5,4.1C1290.5,298.1,1288.5,294.8,1286.6,294.4z"/>
	<path class="st48" d="M1356.5,336.6c-0.9-4.3-0.4-5.7,1.2-6.6c0.2-0.1,1.3,0.6,1.2,0.7C1358.4,332.1,1357.8,333.5,1356.5,336.6z"/>
	<path class="st49" d="M1353.3,352.1c-1.9-1.5-7.7,3-6.1-4C1348.1,351.3,1352.6,348.8,1353.3,352.1z"/>
	<path class="st50" d="M1323.8,357.2c2.2-1.7,4.2-1.4,6.5-0.3C1328.2,358.5,1326.1,358.2,1323.8,357.2z"/>
	<path class="st51" d="M1280.8,293c0,2.6,0.1,5.1,0.1,7.7C1277.9,298.2,1277.6,295.6,1280.8,293z"/>
	<g>
		<path class="st2" d="M984.7,208.5c-20.3-43.4-40.5-86.8-60.7-130.2c-1.3-2.9-2.2-6.4-6.5-6.4c-4.3,0-5.1,3.6-6.4,6.4
			c-6.7,14.3-13.3,28.5-20,42.8c-13.4,28.9-26.9,57.7-40.2,86.6c-1.4,3.1-5.5,8.4,1,9.4c8.3,1.3,17.2,1.3,25.5-0.2
			c6.3-1.2,7.2-8.9,9.2-14.2c2-5.2,5-6.7,10.4-6.5c13.5,0.4,27,0.5,40.4,0c6.4-0.3,9.8,1.9,11.5,7.7c3.2,11,9.5,17.1,20.1,13.9
			c4.3,0,6.9-0.1,9.5,0C985.9,218.2,988.1,215.7,984.7,208.5z M927.8,168.4c-8.1-0.1-16.1,0-25.6,0c5.1-11.4,9.7-21.6,15.2-33.7
			c5,10.7,9.4,19.9,13.7,29.2C932.7,167.3,931.3,168.4,927.8,168.4z"/>
	</g>
	<g>
		<path class="st2" d="M895,321.2c4.2-3.7,7.8-6.5,10.9-9.8c9.6-10.4,10-23.9,1.3-35c-5.7-7.3-13.3-11.8-22.4-13.1
			c-15-2.3-30.2-0.6-45.3-1.1c-5-0.2-5.9,3.1-5.9,7.1c0,35.2,0.1,70.3,0,105.5c0,4.9,1.6,7.1,6.9,7c14.1-0.3,28.3,0.4,42.4-0.3
			c19.6-1,33.8-15.7,33.4-33.2C915.9,334.3,906.4,327.5,895,321.2z M860.6,295.5c-1.8-7.2,1.4-10.7,7.6-8.7
			c11.8,0.2,17.6,4.6,17.3,12.1c-0.3,7.8-6.4,11.5-17.2,11.9C854.3,311.2,862,301,860.6,295.5z M869.7,357.6c-11.8,1-9.3-6.4-9.2-14
			c-0.5-5.6-1.7-11.9,9.1-10.9c11.2,1,18.1,4.7,18.4,12C888.4,352.8,881.7,356.5,869.7,357.6z"/>
	</g>
	<g>
		<path class="st2" d="M418.7,262.2c-11.5-0.3-23,0.2-34.4-0.2c-6.3-0.2-8.8,1.9-8.6,8.5c0.3,17,0.1,34.1,0.1,51.2
			c0,17.4,0.2,34.8-0.1,52.1c-0.1,5.9,1.8,8.1,7.9,8c22.1-0.6,18.7,3,19-18.5c0.1-3.3,0-6.6,0-9.8c0-14.9,0-14.9,14.8-15
			c23.6-0.3,40.4-15.7,40.9-37.5C458.7,279.2,442.2,262.9,418.7,262.2z M412.1,313.2c-10.9-0.2-9.4,2.1-9.5-15.2
			c-0.6-5.5-1.3-12,10.3-11c12.4,1.2,19.3,4.8,19.3,13.1C432.2,309,425.6,313.4,412.1,313.2z"/>
	</g>
	<path class="st52" d="M1308.4,335.2c-0.2,1.8,0.3,4.3-2.3,4.7c-2.6,0.4-3.2-1.6-3.3-3.7c-0.2-2.4,0.1-5.1,2.9-5.3
		C1308.1,330.7,1308.3,333.2,1308.4,335.2z"/>
	<path class="st53" d="M1329.9,344.8c0.1,2.8-0.3,5-2.7,5c-2.4,0-2.7-2.2-2.8-4.3c0-2.1,0.5-4.3,2.7-4.3
		C1329.3,341.3,1330.2,343.4,1329.9,344.8z"/>
	<path class="st54" d="M1332.2,295.1c1.3,0.6,2.5,1.2,3.8,1.8c-3.3,4,0.1,9-2,13.2l-0.8,0.4l-0.9-0.2
		C1330.4,305.3,1330.4,300.2,1332.2,295.1z"/>
	<path class="st55" d="M1332.2,295.1c0,5.1,0,10.1,0,15.2c-4.5-4.6-1.2-10.1-1.9-15.1C1330.9,295,1331.5,295,1332.2,295.1z"/>
</g>
</svg>
