<?xml version="1.0" encoding="utf-8"?>
<!-- Generator: Adobe Illustrator 21.1.0, SVG Export Plug-In . SVG Version: 6.00 Build 0)  -->
<svg version="1.1" xmlns="http://www.w3.org/2000/svg" xmlns:xlink="http://www.w3.org/1999/xlink" x="0px" y="0px"
	 viewBox="0 0 106 91" style="enable-background:new 0 0 106 91;" xml:space="preserve">
<style type="text/css">
	.st0{fill:#231F20;}
	.st1{fill:none;stroke:#231F20;stroke-width:0.6451;stroke-miterlimit:10;}
</style>
<g id="Logos">
	<g>
		<g>
			<path class="st0" d="M12.5,68.4h-1.3L10,66.2H9.2v2.2H8v-5.8h2.3c1.4,0,1.9,0.8,1.9,1.6c0,0.9-0.4,1.4-1,1.7L12.5,68.4z
				 M9.9,65.2c0.6,0,1-0.2,1-0.9c0-0.6-0.3-0.8-1-0.8H9.2v1.6H9.9z"/>
			<path class="st0" d="M12.7,66.3c0-1.5,0.9-2.2,2-2.2c1.3,0,1.8,0.8,1.8,1.9c0,0.1,0,0.4,0,0.5H14c0,0.7,0.3,0.9,0.8,0.9
				c0.4,0,0.6-0.2,0.7-0.6l1,0.2c-0.2,0.8-0.8,1.3-1.8,1.3C13.2,68.5,12.7,67.4,12.7,66.3z M15.3,65.8c0-0.6-0.2-0.8-0.6-0.8
				c-0.3,0-0.7,0.2-0.7,0.8H15.3z"/>
			<path class="st0" d="M18.5,68.4h-1.2v-4.2h1l0.1,0.4c0.3-0.3,0.7-0.5,1.3-0.5c0.5,0,0.9,0.1,1.1,0.5c0.3-0.3,0.7-0.5,1.3-0.5
				c0.8,0,1.2,0.5,1.2,1.4v2.9H22v-2.7c0-0.4-0.1-0.6-0.5-0.6c-0.2,0-0.5,0.1-0.7,0.3c0,0,0,0.1,0,0.1v2.9h-1.2v-2.7
				c0-0.4-0.1-0.6-0.5-0.6c-0.2,0-0.6,0.1-0.7,0.3V68.4z"/>
			<path class="st0" d="M23.9,66.3c0-1.3,0.7-2.2,2.1-2.2c1.4,0,2,0.9,2,2.1c0,1.4-0.6,2.2-2.1,2.2C24.4,68.5,23.9,67.6,23.9,66.3z
				 M26.8,66.3c0-0.9-0.2-1.2-0.8-1.2c-0.5,0-0.8,0.3-0.8,1.2c0,0.9,0.2,1.3,0.8,1.3C26.5,67.6,26.8,67.2,26.8,66.3z"/>
			<path class="st0" d="M32.6,68.4h-1L31.5,68l0,0c-0.3,0.3-0.7,0.5-1.2,0.5c-1,0-1.6-0.6-1.6-2.1c0-1.7,0.9-2.3,1.8-2.3
				c0.5,0,0.8,0.1,1.1,0.4v-2.1h1.2V68.4z M31.4,65.3c-0.2-0.1-0.4-0.2-0.7-0.2c-0.6,0-0.8,0.5-0.8,1.3c0,0.7,0.2,1.2,0.8,1.2
				c0.3,0,0.5-0.1,0.7-0.3V65.3z"/>
			<path class="st0" d="M33.3,66.3c0-1.5,0.9-2.2,2-2.2c1.3,0,1.8,0.8,1.8,1.9c0,0.1,0,0.4,0,0.5h-2.5c0,0.7,0.3,0.9,0.8,0.9
				c0.4,0,0.6-0.2,0.7-0.6l1,0.2c-0.2,0.8-0.8,1.3-1.8,1.3C33.8,68.5,33.3,67.4,33.3,66.3z M35.8,65.8c0-0.6-0.2-0.8-0.6-0.8
				c-0.3,0-0.7,0.2-0.7,0.8H35.8z"/>
			<path class="st0" d="M39,68.4h-1.2v-6H39V68.4z"/>
			<path class="st0" d="M40.5,63.7c-0.5,0-0.7-0.3-0.7-0.7c0-0.5,0.3-0.7,0.7-0.7c0.5,0,0.7,0.3,0.7,0.7
				C41.3,63.4,41,63.7,40.5,63.7z M41.1,68.4h-1.2v-4.2h1.2V68.4z"/>
			<path class="st0" d="M45.8,68.4h-1.2v-2.6c0-0.4-0.2-0.6-0.5-0.6c-0.3,0-0.7,0.2-0.8,0.3v2.9H42v-4.2h1.1l0.1,0.4
				c0.3-0.3,0.8-0.5,1.3-0.5c0.9,0,1.3,0.5,1.3,1.4V68.4z"/>
			<path class="st0" d="M49.5,64.4c0.1-0.3,0.4-0.6,0.8-0.6c0.1,0,0.2,0,0.3,0.1v0.8c-0.2,0-0.5,0-0.7,0.1c0.2,0.3,0.3,0.6,0.3,0.9
				c0,0.9-0.8,1.5-1.8,1.5c-0.3,0-0.5,0-0.7-0.1c-0.1,0.1-0.2,0.2-0.2,0.3c0,0.1,0.1,0.2,0.4,0.2l1.2,0.1c0.9,0.1,1.4,0.4,1.4,1.2
				c0,1-1,1.4-2.2,1.4c-1.5,0-2-0.4-2-1c0-0.4,0.3-0.7,0.8-0.8v0c-0.4-0.1-0.6-0.4-0.6-0.7c0-0.4,0.3-0.6,0.6-0.9
				c-0.4-0.2-0.6-0.6-0.6-1.1c0-0.9,0.7-1.5,1.9-1.5C48.8,64.1,49.2,64.2,49.5,64.4z M48.8,68.6l-1.2-0.1c-0.2,0.1-0.2,0.2-0.2,0.4
				c0,0.3,0.5,0.4,1,0.4c0.5,0,0.9-0.1,0.9-0.4C49.4,68.8,49.3,68.7,48.8,68.6z M48.4,65c-0.4,0-0.8,0.2-0.8,0.6
				c0,0.4,0.2,0.6,0.7,0.6c0.4,0,0.7-0.2,0.7-0.6C49.1,65.2,48.9,65,48.4,65z"/>
			<path class="st0" d="M52.7,68.4v-5.8h2c2,0,2.9,1.1,2.9,2.8c0,1.8-0.9,3-3,3H52.7z M54.5,67.4c1.3,0,1.8-0.7,1.8-1.9
				c0-1.4-0.6-1.9-1.7-1.9h-0.7v3.8H54.5z"/>
			<path class="st0" d="M58.1,66.3c0-1.3,0.7-2.2,2.1-2.2c1.4,0,2,0.9,2,2.1c0,1.4-0.6,2.2-2.1,2.2C58.6,68.5,58.1,67.6,58.1,66.3z
				 M61,66.3c0-0.9-0.2-1.2-0.8-1.2c-0.5,0-0.8,0.3-0.8,1.2c0,0.9,0.2,1.3,0.8,1.3C60.7,67.6,61,67.2,61,66.3z"/>
			<path class="st0" d="M66.7,68.4h-1.2v-2.6c0-0.4-0.2-0.6-0.5-0.6c-0.3,0-0.7,0.2-0.8,0.3v2.9h-1.2v-4.2H64l0.1,0.4
				c0.3-0.3,0.8-0.5,1.3-0.5c0.9,0,1.3,0.5,1.3,1.4V68.4z"/>
			<path class="st0" d="M67.4,66.3c0-1.5,0.9-2.2,2-2.2c1.3,0,1.8,0.8,1.8,1.9c0,0.1,0,0.4,0,0.5h-2.5c0,0.7,0.3,0.9,0.8,0.9
				c0.4,0,0.6-0.2,0.7-0.6l1,0.2c-0.2,0.8-0.8,1.3-1.8,1.3C67.9,68.5,67.4,67.4,67.4,66.3z M70,65.8c0-0.6-0.2-0.8-0.6-0.8
				c-0.3,0-0.7,0.2-0.7,0.8H70z"/>
			<path class="st0" d="M77.9,68.4h-1.3l-1.1-2.2h-0.8v2.2h-1.2v-5.8h2.3c1.4,0,1.9,0.8,1.9,1.6c0,0.9-0.4,1.4-1,1.7L77.9,68.4z
				 M75.3,65.2c0.6,0,1-0.2,1-0.9c0-0.6-0.3-0.8-1-0.8h-0.7v1.6H75.3z"/>
			<path class="st0" d="M79.1,63.7c-0.5,0-0.7-0.3-0.7-0.7c0-0.5,0.3-0.7,0.7-0.7c0.5,0,0.7,0.3,0.7,0.7
				C79.8,63.4,79.5,63.7,79.1,63.7z M79.7,68.4h-1.2v-4.2h1.2V68.4z"/>
			<path class="st0" d="M83.4,64.4c0.1-0.3,0.4-0.6,0.8-0.6c0.1,0,0.2,0,0.3,0.1v0.8c-0.2,0-0.5,0-0.7,0.1c0.2,0.3,0.3,0.6,0.3,0.9
				c0,0.9-0.8,1.5-1.8,1.5c-0.3,0-0.5,0-0.7-0.1c-0.1,0.1-0.2,0.2-0.2,0.3c0,0.1,0.1,0.2,0.4,0.2l1.2,0.1c0.9,0.1,1.4,0.4,1.4,1.2
				c0,1-1,1.4-2.2,1.4c-1.5,0-2-0.4-2-1c0-0.4,0.3-0.7,0.8-0.8v0c-0.4-0.1-0.6-0.4-0.6-0.7c0-0.4,0.3-0.6,0.6-0.9
				c-0.4-0.2-0.6-0.6-0.6-1.1c0-0.9,0.7-1.5,1.9-1.5C82.7,64.1,83.1,64.2,83.4,64.4z M82.7,68.6l-1.2-0.1c-0.2,0.1-0.2,0.2-0.2,0.4
				c0,0.3,0.5,0.4,1,0.4c0.5,0,0.9-0.1,0.9-0.4C83.3,68.8,83.2,68.7,82.7,68.6z M82.3,65c-0.4,0-0.8,0.2-0.8,0.6
				c0,0.4,0.2,0.6,0.7,0.6c0.4,0,0.7-0.2,0.7-0.6C83,65.2,82.8,65,82.3,65z"/>
			<path class="st0" d="M88.8,68.4h-1.2v-2.6c0-0.4-0.2-0.6-0.6-0.6c-0.3,0-0.7,0.2-0.8,0.3v2.9H85v-6h1.2v2.3
				c0.3-0.2,0.7-0.5,1.3-0.5c0.9,0,1.3,0.5,1.3,1.4V68.4z"/>
			<path class="st0" d="M92.4,68.2c-0.2,0.1-0.7,0.3-1.2,0.3c-0.9,0-1.3-0.4-1.3-1.3v-2h-0.6v-0.9h0.6V63l1.2-0.2v1.4h1.1v0.9h-1.1
				v1.9c0,0.4,0.1,0.6,0.5,0.6c0.2,0,0.5-0.1,0.7-0.2L92.4,68.2z"/>
			<path class="st0" d="M93.7,68.5c-0.5,0-0.7-0.2-0.7-0.7c0-0.5,0.2-0.7,0.7-0.7c0.5,0,0.7,0.2,0.7,0.7
				C94.4,68.2,94.2,68.5,93.7,68.5z"/>
			<path class="st0" d="M95.1,63.7h-0.3v-1.1h-0.4v-0.3h1.2v0.3h-0.4V63.7z M96.8,63.7v-0.9l-0.3,0.9h-0.2L96,62.9v0.9h-0.3v-1.4H96
				l0.4,1l0.4-1h0.3v1.4H96.8z"/>
		</g>
		<g>
			<path class="st0" d="M97.7,31.9c0,0.7-0.6,1.3-1.3,1.3c-0.7,0-1.3-0.6-1.3-1.3c0-0.7,0.6-1.3,1.3-1.3
				C97.1,30.7,97.7,31.2,97.7,31.9z M95.4,31.9c0,0.6,0.4,1,1,1c0.5,0,1-0.4,1-1c0-0.6-0.4-1-1-1C95.9,30.9,95.4,31.4,95.4,31.9z
				 M96.2,32.6h-0.3v-1.3c0.1,0,0.3,0,0.5,0c0.2,0,0.3,0,0.4,0.1c0.1,0.1,0.1,0.2,0.1,0.3c0,0.1-0.1,0.2-0.3,0.3v0
				c0.1,0,0.2,0.1,0.2,0.3c0,0.2,0.1,0.3,0.1,0.3h-0.3c0,0-0.1-0.2-0.1-0.3c0-0.1-0.1-0.2-0.3-0.2h-0.1V32.6z M96.2,31.9h0.1
				c0.2,0,0.3-0.1,0.3-0.2c0-0.1-0.1-0.2-0.3-0.2c-0.1,0-0.1,0-0.2,0V31.9z"/>
		</g>
		<g>
			<path class="st0" d="M13.5,39.4v17.7H7.9V30.7h5.6l12.2,17.1V30.7h5.6v26.4h-5.4L13.5,39.4z"/>
			<path class="st0" d="M53.2,52.5H41.4l-1.7,4.5h-6.2l10.2-26.4h7L61,57.1h-6.1L53.2,52.5z M42.9,47.6h8.7l-4.3-12.1L42.9,47.6z"/>
			<path class="st0" d="M73,47.6h-4.1v9.4h-5.6V30.7h12.3c5.5,0,8.9,3.6,8.9,8.5c0,4.7-2.9,7.2-5.8,7.8l5.9,10h-6.4L73,47.6z
				 M74.8,35.5h-5.9v7.3h5.9c2.3,0,4-1.4,4-3.6C78.8,36.9,77.1,35.5,74.8,35.5z"/>
			<path class="st0" d="M88.6,30.7h5.6v26.4h-5.6V30.7z"/>
		</g>
		<g>
			<path class="st0" d="M39.8,78.4l-1.7,4.2h-0.5L36,78.4v4.2h-1.3v-5.9h1.8l1.4,3.7l1.4-3.7h1.8v5.9h-1.3V78.4z"/>
			<path class="st0" d="M42.3,76.8h4.2v1.1h-2.9v1.3h2.9v1.1h-2.9v1.4h2.9v1.1h-4.2V76.8z"/>
			<path class="st0" d="M52.7,78.4l-1.7,4.2h-0.5l-1.7-4.2v4.2h-1.3v-5.9h1.8l1.4,3.7l1.4-3.7H54v5.9h-1.3V78.4z"/>
			<path class="st0" d="M55.2,76.8h3.1c1.1,0,1.7,0.7,1.7,1.5c0,0.7-0.5,1.2-1,1.4c0.6,0.1,1.1,0.7,1.1,1.4c0,0.9-0.6,1.6-1.7,1.6
				h-3.2V76.8z M58,79.2c0.4,0,0.7-0.3,0.7-0.7c0-0.4-0.3-0.6-0.7-0.6h-1.6v1.3H58z M58.1,81.6c0.5,0,0.8-0.3,0.8-0.7
				c0-0.4-0.3-0.7-0.8-0.7h-1.6v1.4H58.1z"/>
			<path class="st0" d="M61.1,76.8h4.2v1.1h-2.9v1.3h2.9v1.1h-2.9v1.4h2.9v1.1h-4.2V76.8z"/>
			<path class="st0" d="M68.6,80.6h-0.9v2.1h-1.3v-5.9h2.8c1.2,0,2,0.8,2,1.9c0,1-0.7,1.6-1.3,1.8l1.3,2.2h-1.4L68.6,80.6z M69,77.9
				h-1.3v1.6H69c0.5,0,0.9-0.3,0.9-0.8S69.5,77.9,69,77.9z"/>
		</g>
		<line class="st1" x1="8" y1="73.2" x2="97.9" y2="73.2"/>
		<rect x="25.7" y="8.2" class="st0" width="5.6" height="8.4"/>
		<polygon class="st0" points="7.9,27.8 13.5,27.8 38.4,12.4 63.3,27.8 68.9,27.8 38.4,8.2 		"/>
		<polygon class="st0" points="43.8,27.8 49.4,27.8 68.9,15 88.6,27.8 94.2,27.8 68.9,11 		"/>
		<polygon class="st0" points="43.8,27.8 49.4,27.8 56.2,23.4 63.3,27.8 68.9,27.8 56.1,19.6 		"/>
	</g>
</g>
<g id="Guides_2">
</g>
</svg>
